{
	"asset":{
		"generator":"Khronos glTF Blender I/O v3.6.27",
		"version":"2.0"
	},
	"scene":0,
	"scenes":[
		{
			"name":"Scene",
			"nodes":[
				0,
				1
			]
		}
	],
	"nodes":[
		{
			"mesh":0,
			"name":"Hallo",
			"translation":[
				0,
				0.10000002384185791,
				0
			]
		},
		{
			"mesh":1,
			"name":"Plane",
			"scale":[
				5.079999923706055,
				1,
				4.809999942779541
			]
		}
	],
	"materials":[
		{
			"doubleSided":true,
			"name":"Material.001",
			"pbrMetallicRoughness":{
				"baseColorFactor":[
					0,
					0.8000000715255737,
					0.0009323492995463312,
					1
				],
				"metallicFactor":0,
				"roughnessFactor":0.5
			}
		}
	],
	"meshes":[
		{
			"name":"HALLO",
			"primitives":[
				{
					"attributes":{
						"POSITION":0,
						"NORMAL":1,
						"TEXCOORD_0":2
					},
					"indices":3,
					"material":0
				}
			]
		},
		{
			"name":"Plane",
			"primitives":[
				{
					"attributes":{
						"POSITION":4,
						"NORMAL":5,
						"TEXCOORD_0":6
					},
					"indices":7
				}
			]
		}
	],
	"accessors":[
		{
			"bufferView":0,
			"componentType":5126,
			"count":1528,
			"max":[
				4.89000129699707,
				0,
				0.009000000543892384
			],
			"min":[
				-4.924999713897705,
				0,
				-0.6914074420928955
			],
			"type":"VEC3"
		},
		{
			"bufferView":1,
			"componentType":5126,
			"count":1528,
			"type":"VEC3"
		},
		{
			"bufferView":2,
			"componentType":5126,
			"count":1528,
			"type":"VEC2"
		},
		{
			"bufferView":3,
			"componentType":5123,
			"count":4470,
			"type":"SCALAR"
		},
		{
			"bufferView":4,
			"componentType":5126,
			"count":4,
			"max":[
				1,
				0,
				1
			],
			"min":[
				-1,
				0,
				-1
			],
			"type":"VEC3"
		},
		{
			"bufferView":5,
			"componentType":5126,
			"count":4,
			"type":"VEC3"
		},
		{
			"bufferView":6,
			"componentType":5126,
			"count":4,
			"type":"VEC2"
		},
		{
			"bufferView":7,
			"componentType":5123,
			"count":6,
			"type":"SCALAR"
		}
	],
	"bufferViews":[
		{
			"buffer":0,
			"byteLength":18336,
			"byteOffset":0,
			"target":34962
		},
		{
			"buffer":0,
			"byteLength":18336,
			"byteOffset":18336,
			"target":34962
		},
		{
			"buffer":0,
			"byteLength":12224,
			"byteOffset":36672,
			"target":34962
		},
		{
			"buffer":0,
			"byteLength":8940,
			"byteOffset":48896,
			"target":34963
		},
		{
			"buffer":0,
			"byteLength":48,
			"byteOffset":57836,
			"target":34962
		},
		{
			"buffer":0,
			"byteLength":48,
			"byteOffset":57884,
			"target":34962
		},
		{
			"buffer":0,
			"byteLength":32,
			"byteOffset":57932,
			"target":34962
		},
		{
			"buffer":0,
			"byteLength":12,
			"byteOffset":57964,
			"target":34963
		}
	],
	"buffers":[
		{
			"byteLength":57976,
			"uri":"data:application/octet-stream;base64,"
		}
	]
}
